<?xml version="1.0" encoding="utf-8"?>
<!-- Generator: Adobe Illustrator 14.0.0, SVG Export Plug-In . SVG Version: 6.00 Build 43363)  -->
<!DOCTYPE svg PUBLIC "-//W3C//DTD SVG 1.1//EN" "http://www.w3.org/Graphics/SVG/1.1/DTD/svg11.dtd">
<svg version="1.1" id="Layer_1" xmlns="http://www.w3.org/2000/svg" xmlns:xlink="http://www.w3.org/1999/xlink" x="0px" y="0px"
	 width="1034.367px" height="100px" viewBox="0 0 1034.367 100" enable-background="new 0 0 1034.367 100" xml:space="preserve">
<path fill="#010101" d="M1003.752,35.046V26.8h4.745c1.355,0,2.654,0.265,3.896,0.791c1.243,0.527,1.864,1.581,1.864,3.163
	c0,1.733-0.678,2.88-2.034,3.445c-1.354,0.565-2.787,0.847-4.292,0.847H1003.752z M998.555,51.314h5.197V39.226h3.728l6.778,12.088
	h6.326l-7.795-12.653c2.034-0.451,3.652-1.336,4.858-2.654c1.203-1.317,1.807-3.031,1.807-5.14c0-1.582-0.301-2.899-0.903-3.954
	c-0.604-1.054-1.413-1.921-2.429-2.598c-1.018-0.678-2.166-1.167-3.446-1.469c-1.28-0.3-2.598-0.452-3.954-0.452h-10.167V51.314z
	 M988.615,28.494c1.13-2.635,2.673-4.931,4.632-6.891c1.958-1.957,4.254-3.502,6.891-4.631c2.636-1.13,5.459-1.695,8.474-1.695
	c3.011,0,5.835,0.565,8.472,1.695c2.635,1.129,4.932,2.674,6.891,4.631c1.957,1.96,3.502,4.256,4.632,6.891
	c1.13,2.637,1.694,5.462,1.694,8.473c0,2.937-0.564,5.724-1.694,8.359c-1.13,2.638-2.675,4.953-4.632,6.948
	c-1.959,1.996-4.256,3.558-6.891,4.688c-2.637,1.131-5.461,1.695-8.472,1.695c-3.015,0-5.838-0.564-8.474-1.695
	c-2.637-1.13-4.933-2.691-6.891-4.688c-1.959-1.995-3.502-4.31-4.632-6.948c-1.129-2.635-1.694-5.422-1.694-8.359
	C986.92,33.956,987.486,31.131,988.615,28.494 M984.886,46.908c1.356,3.089,3.201,5.781,5.536,8.077
	c2.333,2.298,5.064,4.105,8.19,5.423c3.124,1.317,6.457,1.976,9.998,1.976c3.538,0,6.871-0.658,9.997-1.976
	c3.124-1.317,5.854-3.125,8.189-5.423c2.334-2.296,4.181-4.988,5.535-8.077c1.356-3.087,2.034-6.4,2.034-9.941
	c0-3.539-0.678-6.872-2.034-9.998c-1.354-3.124-3.201-5.835-5.535-8.133c-2.335-2.297-5.065-4.124-8.189-5.479
	c-3.126-1.356-6.459-2.034-9.997-2.034c-3.541,0-6.874,0.678-9.998,2.034c-3.126,1.355-5.857,3.182-8.19,5.479
	c-2.335,2.298-4.18,5.009-5.536,8.133c-1.354,3.126-2.033,6.459-2.033,9.998C982.853,40.508,983.532,43.821,984.886,46.908
	 M891.06,98.039h18.301V60.132h1.017l44.59,37.907h25.708l-51.271-41.503l48.075-35.621h-24.691l-42.556,32.68h-0.872v-32.68H891.06
	V98.039z M880.749,31.155c-5.134-4.429-10.676-7.571-16.631-9.423c-5.955-1.852-12.418-2.778-19.39-2.778
	c-7.94,0-15.228,0.963-21.859,2.887c-6.633,1.925-12.346,4.667-17.139,8.224c-4.793,3.559-8.547,7.862-11.257,12.909
	c-2.712,5.048-4.066,10.658-4.066,16.83c0,6.028,1.354,11.512,4.066,16.449c2.71,4.939,6.464,9.17,11.257,12.69
	c4.793,3.522,10.506,6.247,17.139,8.17C829.5,99.036,836.788,100,844.728,100c7.553,0,14.67-1.09,21.351-3.268
	c6.681-2.179,12.346-5.665,16.994-10.458l-15.106-8.061c-3.39,3.268-7.044,5.647-10.966,7.135c-3.921,1.49-7.965,2.233-12.127,2.233
	c-5.327,0-10.146-0.726-14.452-2.179c-4.31-1.452-8.013-3.449-11.111-5.991c-3.1-2.542-5.496-5.556-7.189-9.042
	c-1.695-3.486-2.541-7.298-2.541-11.438c0-3.849,0.846-7.443,2.541-10.784c1.693-3.339,4.09-6.264,7.189-8.769
	c3.099-2.506,6.802-4.466,11.111-5.882c4.307-1.417,9.125-2.125,14.452-2.125c3.581,0,7.139,0.509,10.675,1.525
	c3.533,1.018,7.19,3.05,10.966,6.101L880.749,31.155z M743.278,13.344c2.081,1.563,4.72,2.342,7.916,2.342
	c3.194,0,5.882-0.744,8.061-2.233c2.179-1.488,3.269-3.358,3.269-5.61c0-2.25-1.09-4.121-3.269-5.61
	C757.076,0.745,754.388,0,751.194,0c-3.196,0-5.835,0.781-7.916,2.342c-2.083,1.562-3.123,3.396-3.123,5.501
	C740.155,9.95,741.195,11.783,743.278,13.344 M713.358,13.344c2.081,1.563,4.72,2.342,7.915,2.342s5.883-0.744,8.062-2.233
	c2.178-1.488,3.269-3.358,3.269-5.61c0-2.25-1.091-4.121-3.269-5.61C727.156,0.745,724.468,0,721.273,0s-5.834,0.781-7.915,2.342
	c-2.083,1.562-3.123,3.396-3.123,5.501C710.235,9.95,711.275,11.783,713.358,13.344 M777.773,20.915h-18.301v48.366
	c0,1.889-0.388,3.867-1.162,5.937c-0.775,2.069-2.059,3.977-3.849,5.72c-1.793,1.743-4.165,3.177-7.117,4.302
	c-2.955,1.127-6.608,1.689-10.966,1.689s-8.013-0.563-10.966-1.689c-2.955-1.125-5.326-2.559-7.117-4.302
	c-1.793-1.743-3.075-3.65-3.849-5.72c-0.776-2.069-1.162-4.048-1.162-5.937V20.915h-18.3v48.803c0,4.647,1.038,8.842,3.123,12.58
	c2.081,3.741,4.984,6.918,8.714,9.532c3.727,2.614,8.108,4.63,13.145,6.046C725,99.292,730.471,100,736.378,100
	c5.905,0,11.377-0.708,16.413-2.124c5.033-1.416,9.39-3.432,13.071-6.046c3.679-2.614,6.584-5.791,8.715-9.532
	c2.129-3.738,3.195-7.933,3.195-12.58V20.915z M624.396,98.039h62.02V85.621h-43.718V20.915h-18.302V98.039z M607.113,52.941
	h-39.361v12.418h21.061v18.192c-3.195,1.379-6.852,2.396-10.966,3.049c-4.116,0.654-8.497,0.981-13.145,0.981
	c-5.326,0-10.145-0.726-14.452-2.179c-4.309-1.452-8.013-3.449-11.111-5.991c-3.1-2.542-5.496-5.556-7.188-9.042
	c-1.696-3.486-2.542-7.298-2.542-11.438c0-3.849,0.846-7.443,2.542-10.784c1.692-3.339,4.089-6.264,7.188-8.769
	c3.099-2.506,6.803-4.466,11.111-5.882c4.308-1.417,9.126-2.125,14.452-2.125c5.229,0,10.189,0.654,14.887,1.961
	c4.696,1.307,8.69,3.159,11.983,5.556l13.508-10.24c-5.424-3.63-11.572-6.155-18.446-7.571c-6.877-1.416-14.233-2.124-22.077-2.124
	c-7.94,0-15.228,0.963-21.858,2.887c-6.634,1.925-12.347,4.667-17.14,8.224c-4.793,3.559-8.546,7.862-11.255,12.909
	c-2.712,5.048-4.067,10.658-4.067,16.83c0,6.028,1.355,11.512,4.067,16.449c2.709,4.939,6.462,9.17,11.255,12.69
	c4.793,3.522,10.506,6.247,17.14,8.17c6.631,1.923,13.918,2.887,21.858,2.887c15.687,0,29.87-2.541,42.557-7.625V52.941z"/>
<path fill="#747E87" d="M401.885,98.039h13.944V34.64h0.29l57.226,63.399h17.72V20.915h-13.943v63.399h-0.291l-56.645-63.399
	h-18.301V98.039z M317.5,98.039h68.991v-9.804h-55.047V63.507h48.801v-9.803h-48.801V30.719h52.432v-9.804H317.5V98.039z
	 M259.693,54.902v9.804h22.804v21.459c-3.1,1.309-6.852,2.307-11.257,2.996c-4.407,0.691-9.077,1.035-14.016,1.035
	c-5.714,0-10.99-0.78-15.831-2.342c-4.843-1.562-9.055-3.721-12.636-6.482c-3.584-2.759-6.391-6.008-8.424-9.749
	c-2.034-3.739-3.051-7.789-3.051-12.146c0-4.211,0.92-8.188,2.76-11.928c1.838-3.74,4.453-6.989,7.843-9.75
	c3.388-2.759,7.455-4.956,12.201-6.59c4.743-1.634,10.069-2.451,15.976-2.451c5.229,0,10.215,0.599,14.96,1.797
	c4.744,1.199,9.246,3.323,13.508,6.373l9.877-7.952c-4.067-3.122-9.103-5.573-15.106-7.353c-6.005-1.779-13.75-2.669-23.239-2.669
	c-7.843,0-15.057,1.035-21.641,3.105c-6.586,2.069-12.225,4.92-16.921,8.551c-4.697,3.632-8.376,7.916-11.038,12.854
	c-2.665,4.939-3.994,10.277-3.994,16.013c0,5.447,1.234,10.621,3.703,15.522c2.469,4.902,6.051,9.205,10.748,12.908
	c4.696,3.704,10.458,6.646,17.284,8.824C241.03,98.91,248.8,100,257.515,100c3.098,0,6.413-0.146,9.949-0.436
	c3.533-0.291,7.019-0.745,10.458-1.362c3.435-0.615,6.753-1.361,9.949-2.232c3.195-0.871,6.05-1.888,8.569-3.051V54.902H259.693z
	 M109.077,20.915v48.91c0,4.504,1.017,8.589,3.05,12.255c2.033,3.668,4.841,6.847,8.424,9.532c3.581,2.688,7.793,4.757,12.636,6.209
	c4.841,1.452,10.07,2.179,15.687,2.179c5.614,0,10.843-0.727,15.687-2.179c4.841-1.452,9.053-3.521,12.636-6.209
	c3.581-2.686,6.391-5.864,8.424-9.532c2.034-3.666,3.05-7.751,3.05-12.255v-48.91h-13.943v47.276c0,2.397-0.437,4.885-1.307,7.462
	c-0.872,2.579-2.324,4.957-4.358,7.136c-2.033,2.179-4.697,3.958-7.988,5.337c-3.293,1.381-7.36,2.07-12.2,2.07
	c-4.843,0-8.91-0.689-12.201-2.07c-3.293-1.379-5.955-3.158-7.988-5.337c-2.034-2.179-3.486-4.557-4.357-7.136
	c-0.872-2.577-1.308-5.064-1.308-7.462V20.915H109.077z M31.373,69.825l19.462-35.403h0.291l19.172,35.403H31.373z M0,98.039h16.267
	l10.167-19.063h48.947l10.313,19.063h16.267L57.952,20.915H45.316L0,98.039z"/>
</svg>
